<?xml version="1.0" encoding="utf-8"?>
<!-- Generator: Adobe Illustrator 24.0.0, SVG Export Plug-In . SVG Version: 6.00 Build 0)  -->
<svg version="1.1" id="Camada_1" xmlns="http://www.w3.org/2000/svg" xmlns:xlink="http://www.w3.org/1999/xlink" x="0px" y="0px"
	 viewBox="0 0 2292.5 2470.4" style="enable-background:new 0 0 2292.5 2470.4;" xml:space="preserve">

<path class="st0" d="M2257.7,1913.6c-0.8-68.7-16.8-136.5-41.9-200.1c-19.3-49.3-41.8-97.3-63.7-145.5
	c-174.3-380-357.3-755.9-548.7-1127.5c-26.9-51.9-53.3-104.2-81.7-155.3c-27.9-49.9-60.5-97.9-102.6-136.9
	c-67.2-64.1-157.4-102.2-249.9-108h-42.6C1031.3,45,938.4,85,870,151.6c-40.6,38.4-72,85.3-99.2,133.8
	c-28.1,50.3-54,101.7-80.5,152.8c-128.5,249.3-253.1,500.6-374,753.7C244.4,1343.3,173,1495,104.3,1648
	c-28.5,63.7-54.3,129.6-64,199.2c-18,117.5,7.8,240.7,70.5,341.6c54.1,87.6,135.3,158.2,229.9,199c74,31.9,154.4,46.2,234.8,41.6
	c107.4-5.7,211-44.3,301.9-100.6c101.4-62.2,188.1-145,268.9-231.7c75.1,80.9,155.5,158.2,248.2,218.7
	c89.6,58.9,191.7,101.6,299.2,111.8c116.7,12.2,237.6-16.7,335.5-81.7c86.6-57.4,153.7-139.8,192.3-236.3
	C2246.5,2047.2,2258.8,1980.6,2257.7,1913.6L2257.7,1913.6z M1146.9,1868.3c-29.3-34.5-55.1-71.8-81-108.8
	c-43.6-64-83.3-130.9-115.2-201.5c-26.1-58.6-47.1-120.2-55.3-184.1c-6-50.7-4.5-103.6,14.1-151.8c16.7-45.1,48.7-84.3,89.2-110.1
	c96.6-62.4,234.4-55.6,322,20c44.3,37.8,70.8,93.6,77.5,151c8.7,76.3-8.6,152.9-35.3,224C1312.6,1639,1233,1757.3,1146.9,1868.3
	L1146.9,1868.3z M2095.2,2030.1c-25.8,89.1-87.9,167-169.1,211.9c-72,40.3-157.9,54.1-239.1,40.5
	c-103.4-16.1-196.1-70.9-276.5-135.7c-59.1-47.5-112.2-101.7-163.2-157.6c80.4-101.7,156.2-208.2,214.1-324.5
	c50.5-101.9,88.9-212.3,92.5-326.9c2.1-72.7-11.6-146.7-45.6-211.5c-44.5-86.5-124.1-152.9-215.4-185
	c-85.3-30.5-180.1-33.2-267.1-8.4c-82.1,23.2-157,72.5-208.4,140.9c-45.2,59.6-71,132.9-77,207.2c-9.2,107.1,17.6,213.8,58.2,312.3
	c60.3,143.8,148.9,273.9,246.7,394.7c-44.1,50.9-92,98.5-143.2,142.3c-79.4,67.2-170.2,125.7-273.2,147.9
	c-83.2,18.7-173,9.4-249.3-29.2c-89.4-44.5-158-128.4-183.9-224.9c-19.8-70.8-15.4-147.3,8.1-216.7c19.6-57.4,46.1-112.1,71-167.4
	c172.5-375.9,353.4-747.8,542.6-1115.5c28.2-54.7,56-109.7,85.9-163.5c24.4-43.4,52.7-85.9,92.8-116.4
	c43.3-33.8,96.9-51.6,151.8-50.6c56.4-0.7,112.5,20.1,155.7,56.4c42.6,35.4,71.4,83.8,97.3,132.1
	c58.5,109.8,114.6,220.9,170.8,331.9c160.3,317.3,314.4,637.8,462.1,961.2c22.3,50.2,46.2,100.1,61.2,153.1
	C2113.6,1894.2,2114.2,1964.8,2095.2,2030.1L2095.2,2030.1z"/>
</svg>
